<svg id="visual" viewBox="0 0 900 600" width="900" height="600" xmlns="http://www.w3.org/2000/svg" xmlns:xlink="http://www.w3.org/1999/xlink" version="1.1"><path d="M0 205L10 178C20 151 40 97 60 91C80 85 100 127 120 134C140 141 160 113 180 107C200 101 220 117 240 128C260 139 280 145 300 153C320 161 340 171 360 151C380 131 400 81 420 76C440 71 460 111 480 115C500 119 520 87 540 88C560 89 580 123 600 126C620 129 640 101 660 89C680 77 700 81 720 88C740 95 760 105 780 107C800 109 820 103 840 93C860 83 880 69 890 62L900 55L900 0L890 0C880 0 860 0 840 0C820 0 800 0 780 0C760 0 740 0 720 0C700 0 680 0 660 0C640 0 620 0 600 0C580 0 560 0 540 0C520 0 500 0 480 0C460 0 440 0 420 0C400 0 380 0 360 0C340 0 320 0 300 0C280 0 260 0 240 0C220 0 200 0 180 0C160 0 140 0 120 0C100 0 80 0 60 0C40 0 20 0 10 0L0 0Z" fill="#0a5457"></path><path d="M0 457L10 408C20 359 40 261 60 240C80 219 100 275 120 271C140 267 160 203 180 204C200 205 220 271 240 317C260 363 280 389 300 398C320 407 340 399 360 378C380 357 400 323 420 300C440 277 460 265 480 275C500 285 520 317 540 323C560 329 580 309 600 281C620 253 640 217 660 194C680 171 700 161 720 172C740 183 760 215 780 228C800 241 820 235 840 235C860 235 880 241 890 244L900 247L900 53L890 60C880 67 860 81 840 91C820 101 800 107 780 105C760 103 740 93 720 86C700 79 680 75 660 87C640 99 620 127 600 124C580 121 560 87 540 86C520 85 500 117 480 113C460 109 440 69 420 74C400 79 380 129 360 149C340 169 320 159 300 151C280 143 260 137 240 126C220 115 200 99 180 105C160 111 140 139 120 132C100 125 80 83 60 89C40 95 20 149 10 176L0 203Z" fill="#0c6367"></path><path d="M0 523L10 511C20 499 40 475 60 474C80 473 100 495 120 495C140 495 160 473 180 460C200 447 220 443 240 449C260 455 280 471 300 478C320 485 340 483 360 477C380 471 400 461 420 454C440 447 460 443 480 437C500 431 520 423 540 428C560 433 580 451 600 445C620 439 640 409 660 417C680 425 700 471 720 479C740 487 760 457 780 452C800 447 820 467 840 459C860 451 880 415 890 397L900 379L900 245L890 242C880 239 860 233 840 233C820 233 800 239 780 226C760 213 740 181 720 170C700 159 680 169 660 192C640 215 620 251 600 279C580 307 560 327 540 321C520 315 500 283 480 273C460 263 440 275 420 298C400 321 380 355 360 376C340 397 320 405 300 396C280 387 260 361 240 315C220 269 200 203 180 202C160 201 140 265 120 269C100 273 80 217 60 238C40 259 20 357 10 406L0 455Z" fill="#0d7377"></path><path d="M0 553L10 554C20 555 40 557 60 558C80 559 100 559 120 560C140 561 160 563 180 550C200 537 220 509 240 500C260 491 280 501 300 514C320 527 340 543 360 543C380 543 400 527 420 520C440 513 460 515 480 512C500 509 520 501 540 503C560 505 580 517 600 517C620 517 640 505 660 509C680 513 700 533 720 531C740 529 760 505 780 498C800 491 820 501 840 502C860 503 880 495 890 491L900 487L900 377L890 395C880 413 860 449 840 457C820 465 800 445 780 450C760 455 740 485 720 477C700 469 680 423 660 415C640 407 620 437 600 443C580 449 560 431 540 426C520 421 500 429 480 435C460 441 440 445 420 452C400 459 380 469 360 475C340 481 320 483 300 476C280 469 260 453 240 447C220 441 200 445 180 458C160 471 140 493 120 493C100 493 80 471 60 472C40 473 20 497 10 509L0 521Z" fill="#24868a"></path><path d="M0 601L10 601C20 601 40 601 60 601C80 601 100 601 120 601C140 601 160 601 180 601C200 601 220 601 240 601C260 601 280 601 300 601C320 601 340 601 360 601C380 601 400 601 420 601C440 601 460 601 480 601C500 601 520 601 540 601C560 601 580 601 600 601C620 601 640 601 660 601C680 601 700 601 720 601C740 601 760 601 780 601C800 601 820 601 840 601C860 601 880 601 890 601L900 601L900 485L890 489C880 493 860 501 840 500C820 499 800 489 780 496C760 503 740 527 720 529C700 531 680 511 660 507C640 503 620 515 600 515C580 515 560 503 540 501C520 499 500 507 480 510C460 513 440 511 420 518C400 525 380 541 360 541C340 541 320 525 300 512C280 499 260 489 240 498C220 507 200 535 180 548C160 561 140 559 120 558C100 557 80 557 60 556C40 555 20 553 10 552L0 551Z" fill="#369a9e"></path></svg>