<svg id="visual" viewBox="0 0 900 600" width="900" height="600" xmlns="http://www.w3.org/2000/svg" xmlns:xlink="http://www.w3.org/1999/xlink" version="1.1"><g stroke-width="1" stroke-linejoin="bevel"><path d="M580 320L287 600L607 600Z" fill="#253b3c" stroke="#253b3c"></path><path d="M580 320L300 278L287 600Z" fill="#225659" stroke="#225659"></path><path d="M0 300L0 600L287 600Z" fill="#0d7377" stroke="#0d7377"></path><path d="M607 600L900 296L580 320Z" fill="#212121" stroke="#212121"></path><path d="M300 278L0 300L287 600Z" fill="#0d7377" stroke="#0d7377"></path><path d="M900 600L900 296L607 600Z" fill="#23292a" stroke="#23292a"></path><path d="M609 0L309 0L300 278Z" fill="#244d4f" stroke="#244d4f"></path><path d="M609 0L300 278L580 320Z" fill="#225659" stroke="#225659"></path><path d="M300 278L0 0L0 300Z" fill="#254345" stroke="#254345"></path><path d="M900 296L609 0L580 320Z" fill="#23292a" stroke="#23292a"></path><path d="M309 0L0 0L300 278Z" fill="#1e5f63" stroke="#1e5f63"></path><path d="M900 296L900 0L609 0Z" fill="#18696d" stroke="#18696d"></path></g></svg>