<svg id="visual" viewBox="0 0 900 600" width="900" height="600" xmlns="http://www.w3.org/2000/svg" xmlns:xlink="http://www.w3.org/1999/xlink" version="1.1"><rect x="0" y="0" width="900" height="600" fill="#212121"></rect><defs><linearGradient id="grad1_0" x1="33.3%" y1="0%" x2="100%" y2="100%"><stop offset="20%" stop-color="#0d7377" stop-opacity="1"></stop><stop offset="80%" stop-color="#0d7377" stop-opacity="1"></stop></linearGradient></defs><defs><linearGradient id="grad1_1" x1="33.3%" y1="0%" x2="100%" y2="100%"><stop offset="20%" stop-color="#0d7377" stop-opacity="1"></stop><stop offset="80%" stop-color="#1f5d60" stop-opacity="1"></stop></linearGradient></defs><defs><linearGradient id="grad1_2" x1="33.3%" y1="0%" x2="100%" y2="100%"><stop offset="20%" stop-color="#25484a" stop-opacity="1"></stop><stop offset="80%" stop-color="#1f5d60" stop-opacity="1"></stop></linearGradient></defs><defs><linearGradient id="grad1_3" x1="33.3%" y1="0%" x2="100%" y2="100%"><stop offset="20%" stop-color="#25484a" stop-opacity="1"></stop><stop offset="80%" stop-color="#253435" stop-opacity="1"></stop></linearGradient></defs><defs><linearGradient id="grad1_4" x1="33.3%" y1="0%" x2="100%" y2="100%"><stop offset="20%" stop-color="#212121" stop-opacity="1"></stop><stop offset="80%" stop-color="#253435" stop-opacity="1"></stop></linearGradient></defs><defs><linearGradient id="grad2_0" x1="0%" y1="0%" x2="66.7%" y2="100%"><stop offset="20%" stop-color="#0d7377" stop-opacity="1"></stop><stop offset="80%" stop-color="#0d7377" stop-opacity="1"></stop></linearGradient></defs><defs><linearGradient id="grad2_1" x1="0%" y1="0%" x2="66.7%" y2="100%"><stop offset="20%" stop-color="#1f5d60" stop-opacity="1"></stop><stop offset="80%" stop-color="#0d7377" stop-opacity="1"></stop></linearGradient></defs><defs><linearGradient id="grad2_2" x1="0%" y1="0%" x2="66.7%" y2="100%"><stop offset="20%" stop-color="#1f5d60" stop-opacity="1"></stop><stop offset="80%" stop-color="#25484a" stop-opacity="1"></stop></linearGradient></defs><defs><linearGradient id="grad2_3" x1="0%" y1="0%" x2="66.7%" y2="100%"><stop offset="20%" stop-color="#253435" stop-opacity="1"></stop><stop offset="80%" stop-color="#25484a" stop-opacity="1"></stop></linearGradient></defs><defs><linearGradient id="grad2_4" x1="0%" y1="0%" x2="66.7%" y2="100%"><stop offset="20%" stop-color="#253435" stop-opacity="1"></stop><stop offset="80%" stop-color="#212121" stop-opacity="1"></stop></linearGradient></defs><g transform="translate(900, 0)"><path d="M0 351.5C-26.4 350.3 -52.7 349.1 -78.2 342.7C-103.7 336.3 -128.4 324.7 -148.8 309C-169.3 293.4 -185.6 273.7 -206.4 258.8C-227.2 243.8 -252.4 233.6 -270.5 215.7C-288.6 197.9 -299.5 172.5 -306.3 147.5C-313.1 122.6 -315.8 98.2 -322.7 73.7C-329.6 49.2 -340.5 24.6 -351.5 0L0 0Z" fill="#232a2b"></path><path d="M0 281.2C-21.1 280.3 -42.2 279.3 -62.6 274.2C-83 269 -102.7 259.7 -119.1 247.2C-135.4 234.7 -148.5 219 -165.1 207C-181.7 195.1 -201.9 186.9 -216.4 172.6C-230.9 158.3 -239.6 138 -245.1 118C-250.5 98.1 -252.7 78.5 -258.2 58.9C-263.6 39.3 -272.4 19.7 -281.2 0L0 0Z" fill="#253e3f"></path><path d="M0 210.9C-15.8 210.2 -31.6 209.5 -46.9 205.6C-62.2 201.8 -77 194.8 -89.3 185.4C-101.6 176 -111.4 164.2 -123.8 155.3C-136.3 146.3 -151.5 140.1 -162.3 129.4C-173.2 118.7 -179.7 103.5 -183.8 88.5C-187.9 73.6 -189.5 58.9 -193.6 44.2C-197.7 29.5 -204.3 14.7 -210.9 0L0 0Z" fill="#235355"></path><path d="M0 140.6C-10.5 140.1 -21.1 139.7 -31.3 137.1C-41.5 134.5 -51.3 129.9 -59.5 123.6C-67.7 117.4 -74.2 109.5 -82.6 103.5C-90.9 97.5 -101 93.4 -108.2 86.3C-115.4 79.2 -119.8 69 -122.5 59C-125.3 49 -126.3 39.3 -129.1 29.5C-131.8 19.7 -136.2 9.8 -140.6 0L0 0Z" fill="#19686b"></path><path d="M0 70.3C-5.3 70.1 -10.5 69.8 -15.6 68.5C-20.7 67.3 -25.7 64.9 -29.8 61.8C-33.9 58.7 -37.1 54.7 -41.3 51.8C-45.4 48.8 -50.5 46.7 -54.1 43.1C-57.7 39.6 -59.9 34.5 -61.3 29.5C-62.6 24.5 -63.2 19.6 -64.5 14.7C-65.9 9.8 -68.1 4.9 -70.3 0L0 0Z" fill="#0d7377"></path></g><g transform="translate(0, 600)"><path d="M0 -351.5C26 -344.9 52.1 -338.2 74.5 -326.6C97 -315 115.9 -298.6 138.8 -288.3C161.7 -278.1 188.6 -274.1 207 -259.6C225.4 -245.1 235.3 -220.1 251.7 -200.8C268.2 -181.4 291.1 -167.8 308.1 -148.4C325.2 -129 336.5 -103.9 342.7 -78.2C349 -52.5 350.3 -26.3 351.5 0L0 0Z" fill="#232a2b"></path><path d="M0 -281.2C20.8 -275.9 41.7 -270.5 59.6 -261.3C77.6 -252 92.8 -238.8 111.1 -230.6C129.4 -222.5 150.9 -219.3 165.6 -207.7C180.3 -196.1 188.3 -176.1 201.4 -160.6C214.5 -145.2 232.8 -134.2 246.5 -118.7C260.2 -103.2 269.2 -83.1 274.2 -62.6C279.2 -42 280.2 -21 281.2 0L0 0Z" fill="#253e3f"></path><path d="M0 -210.9C15.6 -206.9 31.2 -202.9 44.7 -196C58.2 -189 69.6 -179.1 83.3 -173C97 -166.8 113.2 -164.4 124.2 -155.7C135.2 -147 141.2 -132.1 151 -120.5C160.9 -108.9 174.6 -100.7 184.9 -89C195.1 -77.4 201.9 -62.3 205.6 -46.9C209.4 -31.5 210.2 -15.8 210.9 0L0 0Z" fill="#235355"></path><path d="M0 -140.6C10.4 -137.9 20.8 -135.3 29.8 -130.6C38.8 -126 46.4 -119.4 55.5 -115.3C64.7 -111.2 75.4 -109.6 82.8 -103.8C90.2 -98 94.1 -88 100.7 -80.3C107.3 -72.6 116.4 -67.1 123.3 -59.4C130.1 -51.6 134.6 -41.6 137.1 -31.3C139.6 -21 140.1 -10.5 140.6 0L0 0Z" fill="#19686b"></path><path d="M0 -70.3C5.2 -69 10.4 -67.6 14.9 -65.3C19.4 -63 23.2 -59.7 27.8 -57.7C32.3 -55.6 37.7 -54.8 41.4 -51.9C45.1 -49 47.1 -44 50.3 -40.2C53.6 -36.3 58.2 -33.6 61.6 -29.7C65 -25.8 67.3 -20.8 68.5 -15.6C69.8 -10.5 70.1 -5.3 70.3 0L0 0Z" fill="#0d7377"></path></g></svg>